<?xml version="1.0" encoding="utf-8"?>
<!DOCTYPE svg PUBLIC "-//W3C//DTD SVG 1.1//EN" "http://www.w3.org/Graphics/SVG/1.1/DTD/svg11.dtd">
<svg xmlns="http://www.w3.org/2000/svg" xmlns:xlink="http://www.w3.org/1999/xlink" version="1.1" viewBox="0 0 512 512" enable-background="new 0 0 512 512" width="512px" height="512px">
  <g>
    <g>
      <path d="m436.4,278.3c0-102.3-80-186.1-180-187.2v-28.1h15.6v-20.8h-53.1v20.8h16.6v29.1c-91.2,9.7-163.3,89.8-163.3,186.3 0,64.7 32,121.9 80.8,155.6l-54.8,52 14.3,15.1 58.9-55.9c24.8,13.1 53,20.5 82.8,20.5 30.2,0 58.7-7.6 83.8-21l59.2,56.2 14.3-15.1-55.2-52.4c48.4-33.8 80.1-90.8 80.1-155.1zm-182.1,166.5c-88.4,0-161.3-74.9-161.3-166.5s71.8-166.5 161.3-166.5 161.3,74.9 161.3,166.5-72.9,166.5-161.3,166.5z" fill="#9fa5b4"/>
      <polygon points="256.4,136.9 235.6,136.9 235.6,285.6 315.7,321 324,301.2 256.4,272.1   " fill="#9fa5b4"/>
      <path d="m164.6,37.4c-35.1-35.1-92.1-35.1-127.3,0-35.1,35.1-35.1,92.1 0,127.3 2,2 4.2,3.9 6.3,5.7l126.4-127.2c-1.7-2-3.5-3.9-5.4-5.8zm-120.3,102.4c-19.8-26.7-17.5-64.6 6.7-88.8 24.1-24.1 61.7-26.4 88.4-7l-95.1,95.8z" fill="#9fa5b4"/>
      <path d="m473.7,37.4c-35.1-35.1-92.1-35.1-127.3,0-1.9,1.9-3.7,3.9-5.3,5.9l126.3,127.2c2.2-1.8 4.3-3.7 6.3-5.7 35.2-35.3 35.2-92.3 0-127.4zm-6.9,102.4l-95.1-95.8c26.7-19.4 64.3-17.1 88.4,7 24.2,24.2 26.5,62.1 6.7,88.8z" fill="#9fa5b4"/>
    </g>
  </g>
</svg>
