<svg xmlns="http://www.w3.org/2000/svg" viewBox="0 0 363.5 18">
  <defs>
    <style>
      .cls-1 {
        fill: none;
        stroke-miterlimit: 10;
        opacity: 0.4;
      }

      .cls-2 {
        fill: rgba(255,255,255,0.5);
      }

      .cls-3, .cls-4, .cls-7 {
        fill: #fff;
      }

      .cls-4 {
        font-size: 12px;
        font-family: SegoeUI, Segoe UI;
      }

      .cls-5 {
        fill: #fcfcfd;
      }

      .cls-6, .cls-7 {
        stroke: none;
      }
    </style>
  </defs>
  <g id="Bars_Status_White" data-name="Bars/Status/White" transform="translate(-7 -2)">
    <g id="Pin_Right" data-name="Pin Right" transform="translate(302 3)">
      <g id="Battery" transform="translate(44 2)">
        <g id="Border" class="cls-1">
          <path class="cls-6" d="M0,2.5A2.5,2.5,0,0,1,2.5,0h17A2.5,2.5,0,0,1,22,2.5V8a2.5,2.5,0,0,1-2.5,2.5H2.5A2.5,2.5,0,0,1,0,8Z"/>
          <path class="cls-7" d="M 19.5 9.5 C 20.32710075378418 9.5 21 8.827099800109863 21 8 L 21 2.5 C 21 1.672899961471558 20.32710075378418 1 19.5 1 L 2.5 1 C 1.672899961471558 1 1 1.672899961471558 1 2.5 L 1 8 C 1 8.827099800109863 1.672899961471558 9.5 2.5 9.5 L 18.46866989135742 9.5 L 19.5 9.5 M 19.5 10.5 L 18.46866989135742 10.5 L 2.5 10.5 C 1.119289994239807 10.5 -1.77635683940025e-15 9.380709648132324 -1.77635683940025e-15 8 L -1.77635683940025e-15 2.5 C -1.77635683940025e-15 1.119289994239807 1.119289994239807 0 2.5 0 L 19.5 0 C 20.88071060180664 0 22 1.119289994239807 22 2.5 L 22 8 C 22 9.380709648132324 20.88071060180664 10.5 19.5 10.5 Z M 2.5 10.5 L -1.77635683940025e-15 10.5 L 2.5 10.5 Z"/>
        </g>
        <path id="Nub" class="cls-2" d="M0,3.874H0V0A2,2,0,0,1,1.5,1.937,2,2,0,0,1,0,3.873Z" transform="translate(23 3.5)"/>
        <rect id="Charge" class="cls-3" width="18" height="6.5" rx="1" transform="translate(2 2)"/>
      </g>
      <text id="_100_" data-name="100%" class="cls-4" transform="translate(8 0.5)"><tspan x="3.773" y="13">100%</tspan></text>
      <path id="Bluetooth" class="cls-3" d="M3.5,13.5V8L1,10.5.5,10l3-3V6.5L0,3.5.5,3l3,2.5V0l4,4L5,7,7.5,9.5l-4,4ZM4.5,8v3L5.963,9.5Zm0-5.5v3L6.034,4Z"/>
    </g>
    <text id="Time" class="cls-4" transform="translate(187.5 17)"><tspan x="-21.905" y="0">9:41 AM</tspan></text>
    <g id="Signal">
      <text id="Carrier" class="cls-4" transform="translate(26 15)"><tspan x="0" y="0">AlarMe</tspan></text>
      <path id="Mobile_Signal" data-name="Mobile Signal" class="cls-5" d="M13.994,9.5H12.506A.5.5,0,0,1,12,9V.5a.5.5,0,0,1,.506-.5h1.489A.5.5,0,0,1,14.5.5V9A.5.5,0,0,1,13.994,9.5Zm-4,0H8.506A.512.512,0,0,1,8,9V3a.505.505,0,0,1,.506-.5H9.995A.511.511,0,0,1,10.5,3V9A.505.505,0,0,1,9.995,9.5Zm-4,0H4.506A.5.5,0,0,1,4,9V5a.5.5,0,0,1,.507-.5H5.994A.5.5,0,0,1,6.5,5V9A.5.5,0,0,1,5.994,9.5Zm-4,0H.506A.5.5,0,0,1,0,9V7a.5.5,0,0,1,.506-.5H1.994A.5.5,0,0,1,2.5,7V9A.5.5,0,0,1,1.994,9.5Z" transform="translate(7 5)"/>
      <path id="Wifi" class="cls-3" d="M4.361,6.906a2.884,2.884,0,0,1,4.284.032L6.522,9ZM6.487,4.477A4.419,4.419,0,0,0,3.27,5.848L2.179,4.793a6.037,6.037,0,0,1,8.645.029L9.734,5.88A4.416,4.416,0,0,0,6.487,4.477Zm0-2.984a7.54,7.54,0,0,0-5.4,2.245L0,2.682A9.1,9.1,0,0,1,6.487,0,9.1,9.1,0,0,1,13,2.707L11.911,3.764A7.537,7.537,0,0,0,6.487,1.492Z" transform="translate(69.5 5.5)"/>
    </g>
  </g>
</svg>
