<svg xmlns="http://www.w3.org/2000/svg" viewBox="0 0 10 10">
  <defs>
    <style>
      .cls-1 {
        fill: #9fa5b4;
      }
    </style>
  </defs>
  <g id="grid-world" transform="translate(0 0)">
    <path id="Shape" class="cls-1" d="M5.333,10H4.667V9.988A5.008,5.008,0,0,1,.012,5.333H0V4.666H.012A5.008,5.008,0,0,1,4.667.012V0h.667V.012A5.008,5.008,0,0,1,9.988,4.666H10v.667H9.988A5.008,5.008,0,0,1,5.333,9.988V10ZM7.881,7A7.107,7.107,0,0,1,7,9,5.127,5.127,0,0,0,9,7H7.881ZM3,7A3.1,3.1,0,0,0,5,9,3.1,3.1,0,0,0,7,7H3ZM1,7H1A5.125,5.125,0,0,0,3,9a7.059,7.059,0,0,1-.88-2H1ZM8.11,5A6.741,6.741,0,0,1,8,6h.786A3.509,3.509,0,0,0,9,5ZM3,5a4.293,4.293,0,0,0,.173,1H6.826A4.231,4.231,0,0,0,7,5H3ZM1,5a3.512,3.512,0,0,0,.214,1H2a7.221,7.221,0,0,1-.11-1ZM7.007,1a7.238,7.238,0,0,1,.874,2H8A6.532,6.532,0,0,1,8.11,4H9a3.532,3.532,0,0,0-.214-1H9A5.161,5.161,0,0,0,7.007,1ZM5,1H5A3.1,3.1,0,0,0,3,3h.174A4.16,4.16,0,0,0,3,4H7a4.312,4.312,0,0,0-.174-1H7A3.1,3.1,0,0,0,5,1ZM3,1A5.1,5.1,0,0,0,1,3h.212A3.765,3.765,0,0,0,1,4h.89A6.869,6.869,0,0,1,2,3H2.12A7.122,7.122,0,0,1,3,1Z"/>
  </g>
</svg>
