<?xml version="1.0" encoding="iso-8859-1"?>
<!-- Generator: Adobe Illustrator 19.0.0, SVG Export Plug-In . SVG Version: 6.00 Build 0)  -->
<svg version="1.1" id="Capa_1" xmlns="http://www.w3.org/2000/svg" xmlns:xlink="http://www.w3.org/1999/xlink" x="0px" y="0px"
	 viewBox="0 0 512 512" style="enable-background:new 0 0 512 512;" xml:space="preserve">
<g>
	<g transform="translate(1 1)">
		<circle style="fill:#607D8B;" cx="255" cy="255" r="247.467"/>
		<ellipse style="fill:#CFD8DC;" cx="242.2" cy="255" rx="234.667" ry="247.467"/>
		<path style="fill:#F44335;" d="M153.145,246.774c26.36,44.865,63.747,82.251,108.612,108.612l47.367-47.367
			c6.665-6.665,17.471-6.665,24.136,0l60.34,60.34c3.201,3.201,4.999,7.542,4.999,12.068s-1.798,8.867-4.999,12.068l-42.202,42.202
			c-13.522,13.65-33.582,18.514-51.854,12.572c-4.176-1.388-8.323-2.852-12.443-4.391
			C184.61,404.752,103.779,323.921,65.652,221.432c-1.538-4.118-3.001-8.266-4.391-12.443c-5.941-18.272-1.078-38.332,12.572-51.854
			l42.203-42.203c3.201-3.201,7.542-4.999,12.068-4.999s8.867,1.798,12.068,4.999l60.34,60.34c3.201,3.201,4.999,7.542,4.999,12.068
			s-1.798,8.867-4.999,12.068L153.145,246.774z"/>
		<g>
			<path style="fill:#C52828;" d="M200.472,199.43l-30.123,30.123l-84.48-84.48l25.856-25.856l4.352-4.267
				c3.188-3.196,7.517-4.992,12.032-4.992c4.515,0,8.844,1.796,12.032,4.992l60.331,60.331c3.235,3.185,5.056,7.535,5.056,12.075
				C205.528,191.894,203.707,196.244,200.472,199.43z"/>
			<path style="fill:#C52828;" d="M393.581,392.453l-30.123,30.208l-84.48-84.48l25.856-25.856l4.267-4.267
				c3.185-3.235,7.535-5.056,12.075-5.056c4.54,0,8.89,1.822,12.075,5.056l60.331,60.33c3.196,3.189,4.992,7.518,4.992,12.032
				S396.778,389.265,393.581,392.453z"/>
		</g>
		<g>
			<path style="fill:#F44335;" d="M167.789,199.43l-13.739,13.824l-68.181-68.181l25.856-25.856l56.064,56.064
				c3.272,3.165,5.12,7.522,5.12,12.075C172.909,191.907,171.062,196.265,167.789,199.43z"/>
			<path style="fill:#F44335;" d="M360.899,392.453l-13.824,13.824l-68.096-68.096l25.856-25.856l56.064,56.064
				c3.234,3.168,5.056,7.505,5.056,12.032C365.955,384.949,364.133,389.285,360.899,392.453z"/>
			<polygon style="fill:#F44335;" points="269.746,215.687 275.779,125.182 299.911,149.315 360.634,88.6 396.833,124.807 
				336.118,185.522 360.25,209.654 			"/>
		</g>
	</g>
	<g>
		<path d="M340.292,304.45c-10.008-9.97-26.194-9.968-36.2,0.004l-30.163,30.163l-0.012,0.009l-0.009,0.012l-12.466,12.466
			c-39.245-24.246-72.302-57.302-96.55-96.546l12.475-12.473l0.009-0.006l0.006-0.009l30.16-30.158c4.802-4.8,7.5-11.312,7.5-18.102
			c0-6.79-2.698-13.302-7.5-18.102l-60.333-60.346c-10.01-9.974-26.201-9.972-36.208,0.004l-42.2,42.204
			c-16.02,15.76-21.694,39.253-14.633,60.588c1.417,4.267,2.917,8.513,4.483,12.704c19.152,51.862,49.373,98.93,88.559,137.929
			c38.991,39.184,86.052,69.402,137.908,88.55c4.208,1.571,8.453,3.068,12.733,4.492c5.86,1.942,11.994,2.928,18.167,2.921
			c15.902-0.023,31.149-6.333,42.417-17.554l42.2-42.2c4.802-4.8,7.5-11.312,7.5-18.102s-2.698-13.302-7.5-18.102L340.292,304.45z
			 M123.067,123.437c3.337-3.326,8.735-3.328,12.075-0.004l60.333,60.346c1.601,1.599,2.5,3.769,2.5,6.031s-0.899,4.432-2.5,6.031
			l-24.135,24.135l-72.406-72.406L123.067,123.437z M303.233,441.642c-4.075-1.358-8.133-2.792-12.175-4.3
			c-49.553-18.298-94.524-47.173-131.784-84.616C121.83,315.457,92.952,270.48,74.65,220.921c-1.5-4.025-2.931-8.076-4.292-12.154
			c-4.859-15.21-0.803-31.859,10.508-43.129l6-6l72.406,72.406l-11.164,11.164c-2.749,2.747-3.293,7.004-1.325,10.354
			c27.099,46.123,65.535,84.557,111.659,111.654c3.351,1.961,7.603,1.415,10.35-1.329l11.162-11.16l72.414,72.406l-6,6
			C335.099,442.45,318.444,446.508,303.233,441.642z M388.567,388.929l-24.134,24.137l-72.411-72.405l24.137-24.136
			c3.332-3.33,8.732-3.332,12.067-0.004l60.342,60.346c1.601,1.599,2.5,3.769,2.5,6.031
			C391.067,385.16,390.167,387.33,388.567,388.929L388.567,388.929z"/>
		<path d="M256,0C114.615,0,0,114.615,0,256s114.615,256,256,256s256-114.615,256-256C511.84,114.682,397.319,0.16,256,0z
			 M256,494.933C124.041,494.933,17.067,387.959,17.067,256S124.041,17.067,256,17.067S494.933,124.041,494.933,256
			C494.785,387.898,387.898,494.785,256,494.933z"/>
		<path d="M270.742,225.225c0.192,0,0.375-0.009,0.567-0.021l90.517-6.033c3.342-0.22,6.246-2.375,7.424-5.51
			c1.178-3.135,0.413-6.669-1.957-9.036l-18.108-18.104l54.683-54.683c1.601-1.6,2.5-3.77,2.5-6.033c0-2.263-0.899-4.434-2.5-6.033
			l-36.2-36.204c-3.386-3.2-8.681-3.2-12.067,0l-54.683,54.683l-18.108-18.104c-2.368-2.367-5.901-3.131-9.036-1.953
			c-3.134,1.178-5.291,4.079-5.514,7.42l-6.033,90.513c-0.155,2.356,0.672,4.672,2.286,6.396
			C266.125,224.245,268.38,225.224,270.742,225.225L270.742,225.225z M284.042,145.508l10.842,10.842c1.6,1.601,3.77,2.5,6.033,2.5
			c2.263,0,4.433-0.899,6.033-2.5l54.683-54.683l24.133,24.138l-54.683,54.683c-1.601,1.6-2.5,3.77-2.5,6.033s0.899,4.433,2.5,6.033
			l10.842,10.842l-62.017,4.133L284.042,145.508z"/>
	</g>
</g>
<g>
</g>
<g>
</g>
<g>
</g>
<g>
</g>
<g>
</g>
<g>
</g>
<g>
</g>
<g>
</g>
<g>
</g>
<g>
</g>
<g>
</g>
<g>
</g>
<g>
</g>
<g>
</g>
<g>
</g>
</svg>
