<?xml version="1.0" encoding="iso-8859-1"?>
<!-- Generator: Adobe Illustrator 19.0.0, SVG Export Plug-In . SVG Version: 6.00 Build 0)  -->
<svg version="1.1" id="Capa_1" xmlns="http://www.w3.org/2000/svg" xmlns:xlink="http://www.w3.org/1999/xlink" x="0px" y="0px"
	 viewBox="0 0 512 512" style="enable-background:new 0 0 512 512;" xml:space="preserve">
<g>
	<path style="fill:#4C8056;" d="M397.241,432.552h97.103c9.751,0,17.655-7.904,17.655-17.655V97.104
		c0-9.751-7.905-17.655-17.655-17.655H17.655C7.905,79.448,0,87.353,0,97.104v317.793c0,9.751,7.904,17.655,17.655,17.655H397.241z"
		/>
	<g>
		<path style="fill:#2C2F38;" d="M224.839,244.083L0,399.095L0,97.104c-0.006-2.462,0.505-4.898,1.501-7.15L224.839,244.083z"/>
		<path style="fill:#2C2F38;" d="M512,97.104v301.992L287.161,244.083l223.338-154.13C511.495,92.205,512.006,94.641,512,97.104z"/>
	</g>
	<path style="fill:#F3D55B;" d="M512,399.095v15.801c-0.032,8.439-6.018,15.682-14.301,17.302L256,265.534L14.301,432.199
		C6.019,430.578,0.032,423.336,0,414.897v-15.801l224.839-155.012L1.501,89.953c2.847-6.377,9.171-10.489,16.154-10.505h30.808
		L256,222.543L463.537,79.448h30.808c6.983,0.016,13.307,4.128,16.155,10.505l-223.338,154.13L512,399.095z"/>
</g>
<g>
</g>
<g>
</g>
<g>
</g>
<g>
</g>
<g>
</g>
<g>
</g>
<g>
</g>
<g>
</g>
<g>
</g>
<g>
</g>
<g>
</g>
<g>
</g>
<g>
</g>
<g>
</g>
<g>
</g>
</svg>
