<svg xmlns="http://www.w3.org/2000/svg" viewBox="0 0 17.296 15.165">
  <defs>
    <style>
      .cls-1 {
        fill: none;
        stroke: #5e636f;
        stroke-miterlimit: 10;
        stroke-width: 1.296px;
      }
    </style>
  </defs>
  <g id="Group_2" data-name="Group 2" transform="translate(0.648 0.875)">
    <path id="Stroke_2" data-name="Stroke 2" class="cls-1" d="M12,6A6,6,0,1,1,6,0,6,6,0,0,1,12,6Z" transform="translate(2 1)"/>
    <path id="Stroke_4" data-name="Stroke 4" class="cls-1" d="M5,.844A2.964,2.964,0,0,0,.849.852,2.957,2.957,0,0,0,.85,5"/>
    <path id="Stroke_6" data-name="Stroke 6" class="cls-1" d="M0,.844A2.964,2.964,0,0,1,4.151.852,2.957,2.957,0,0,1,4.15,5" transform="translate(11)"/>
    <path id="Stroke_8" data-name="Stroke 8" class="cls-1" d="M1,0,0,2" transform="translate(3 12)"/>
    <path id="Stroke_10" data-name="Stroke 10" class="cls-1" d="M0,0,1,2" transform="translate(12 12)"/>
    <path id="Stroke_1" data-name="Stroke 1" class="cls-1" d="M0,0,2.727,3,5,1.714" transform="translate(5 5)"/>
  </g>
</svg>
