<svg id="Page_1" data-name="Page 1" xmlns="http://www.w3.org/2000/svg" viewBox="0 0 14 16">
  <defs>
    <style>
      .cls-1 {
        fill: #5e636f;
      }
    </style>
  </defs>
  <path id="Fill_1" data-name="Fill 1" class="cls-1" d="M2.663,5A2.588,2.588,0,0,1,0,2.5,2.588,2.588,0,0,1,2.663,0,2.63,2.63,0,0,1,5.247,1.9H14V3.1H5.247A2.63,2.63,0,0,1,2.663,5ZM2.5,1C1.673,1,1,1.448,1,2s.673,1,1.5,1S4,2.551,4,2,3.327,1,2.5,1Z"/>
  <path id="Fill_3" data-name="Fill 3" class="cls-1" d="M9.1,5a2.575,2.575,0,0,1-2.52-1.9H0V1.905H6.584a2.622,2.622,0,0,1,5.044,0H13V3.1H11.626A2.577,2.577,0,0,1,9.1,5Zm.4-4C8.672,1,8,1.448,8,2s.672,1,1.5,1S11,2.551,11,2,10.326,1,9.5,1Z" transform="translate(1 5)"/>
  <path id="Fill_5" data-name="Fill 5" class="cls-1" d="M3.9,5A2.571,2.571,0,0,1,1.378,3.1H0V1.905H1.377A2.572,2.572,0,0,1,3.9,0,2.574,2.574,0,0,1,6.416,1.905H13V3.1H6.416A2.575,2.575,0,0,1,3.9,5Zm.6-4C3.672,1,3,1.448,3,2s.672,1,1.5,1S6,2.551,6,2,5.326,1,4.5,1Z" transform="translate(1 11)"/>
</svg>
